<svg width="1919" height="259" viewBox="0 0 1919 259" fill="none" xmlns="http://www.w3.org/2000/svg">
<mask id="path-1-inside-1_20_219" fill="white">
<path d="M86.1569 254.587L0 16.9725H49.6929L116.346 200.445L182.999 16.9725H232.522L146.365 254.587H86.1569ZM239.95 84.8624H286.759V254.587H239.95V84.8624ZM263.694 65.3441C256.91 65.3441 251.2 63.0811 246.564 58.5551C241.929 54.029 239.611 48.4281 239.611 41.7523C239.611 35.0766 241.929 29.4756 246.564 24.9496C251.2 20.4236 256.854 18.1606 263.524 18.1606C270.196 18.1606 275.793 20.4236 280.314 24.9496C284.952 29.4756 287.268 35.0766 287.268 41.7523C287.268 48.4281 285.007 54.029 280.484 58.5551C276.074 63.0811 270.477 65.3441 263.694 65.3441ZM419.643 254.587H359.096L297.361 84.8624H347.224L389.285 200.784L431.346 84.8624H481.378L419.643 254.587ZM492.057 84.8624H538.867V254.587H492.057V84.8624ZM515.801 65.3441C509.017 65.3441 503.309 63.0811 498.672 58.5551C494.037 54.029 491.718 48.4281 491.718 41.7523C491.718 35.0766 494.037 29.4756 498.672 24.9496C503.309 20.4236 508.962 18.1606 515.632 18.1606C522.304 18.1606 527.901 20.4236 532.422 24.9496C537.06 29.4756 539.376 35.0766 539.376 41.7523C539.376 48.4281 537.115 54.029 532.592 58.5551C528.182 63.0811 522.585 65.3441 515.801 65.3441ZM685.958 0H732.768V254.587H685.958V236.596C680.759 243.159 674.314 248.534 666.624 252.72C658.936 256.907 650.172 259 640.336 259C628.013 259 616.48 256.68 605.737 252.041C594.997 247.402 585.499 241.009 577.244 232.862C569.104 224.602 562.717 215.098 558.079 204.349C553.445 193.599 551.126 182.058 551.126 169.725C551.126 157.391 553.445 145.85 558.079 135.101C562.717 124.352 569.104 114.904 577.244 106.757C585.499 98.4969 594.997 92.0473 605.737 87.4083C616.48 82.7692 628.013 80.4496 640.336 80.4496C650.172 80.4496 658.936 82.5427 666.624 86.7294C674.314 90.8028 680.759 96.1775 685.958 102.853V0ZM641.014 214.023C648.704 214.023 655.658 212.043 661.875 208.083C668.094 204.122 673.013 198.804 676.63 192.128C680.25 185.339 682.057 177.872 682.057 169.725C682.057 161.465 680.25 153.997 676.63 147.321C673.013 140.645 668.094 135.327 661.875 131.367C655.658 127.407 648.704 125.427 641.014 125.427C633.212 125.427 626.148 127.407 619.814 131.367C613.483 135.327 608.451 140.702 604.72 147.491C600.988 154.167 599.123 161.578 599.123 169.725C599.123 177.872 600.988 185.339 604.72 192.128C608.565 198.804 613.653 204.122 619.984 208.083C626.317 212.043 633.326 214.023 641.014 214.023ZM827.985 254.587V16.9725H906.68C923.075 16.9725 938.395 20.0841 952.641 26.3074C967.002 32.4174 979.608 40.9602 990.462 51.9358C1001.43 62.7982 1009.97 75.4143 1016.07 89.7844C1022.29 104.041 1025.4 119.373 1025.4 135.78C1025.4 152.187 1022.29 167.575 1016.07 181.945C1009.97 196.202 1001.43 208.818 990.462 219.794C979.608 230.656 967.002 239.199 952.641 245.422C938.395 251.532 923.075 254.587 906.68 254.587H827.985ZM874.795 207.743H906.68C916.405 207.743 925.564 205.876 934.155 202.142C942.863 198.408 950.55 193.26 957.221 186.697C963.893 180.134 969.093 172.497 972.824 163.784C976.669 155.072 978.59 145.737 978.59 135.78C978.59 125.823 976.669 116.544 972.824 107.945C969.093 99.2325 963.893 91.5949 957.221 85.0321C950.664 78.3564 943.032 73.1514 934.325 69.4174C925.733 65.6835 916.516 63.8165 906.68 63.8165H874.795V207.743ZM1040.83 254.587L1040.66 84.8624H1087.47L1087.64 97.422C1093.3 91.9908 1099.91 87.7477 1107.48 84.6927C1115.17 81.6376 1123.26 80.1101 1131.74 80.1101C1137.96 80.1101 1144.18 81.0152 1150.39 82.8257L1131.91 130.179C1127.84 128.482 1123.71 127.633 1119.53 127.633C1113.65 127.633 1108.28 129.047 1103.41 131.876C1098.55 134.705 1094.71 138.552 1091.88 143.417C1089.06 148.17 1087.64 153.544 1087.64 159.541V254.587H1040.83ZM1221.96 259C1206.36 259 1192.11 254.983 1179.22 246.95C1166.45 238.916 1156.21 228.11 1148.52 214.532C1140.95 200.954 1137.16 185.962 1137.16 169.555C1137.16 157.222 1139.37 145.68 1143.78 134.931C1148.19 124.069 1154.24 114.564 1161.92 106.417C1169.72 98.1574 1178.77 91.7079 1189.06 87.0688C1199.35 82.4298 1210.32 80.1101 1221.96 80.1101C1235.42 80.1101 1247.68 82.9954 1258.76 88.7661C1269.96 94.5367 1279.4 102.401 1287.09 112.358C1294.89 122.315 1300.43 133.573 1303.71 146.133C1307.1 158.693 1307.67 171.761 1305.4 185.339H1187.7C1189.17 190.318 1191.43 194.844 1194.49 198.917C1197.65 202.878 1201.5 206.046 1206.02 208.422C1210.66 210.798 1215.97 212.043 1221.96 212.156C1227.84 212.269 1233.27 210.911 1238.24 208.083C1243.22 205.254 1247.46 201.463 1250.96 196.711L1298.79 207.743C1291.89 222.792 1281.6 235.125 1267.92 244.743C1254.24 254.248 1238.92 259 1221.96 259ZM1186.01 150.716H1258.09C1256.62 145.058 1254.13 139.966 1250.62 135.44C1247.12 130.914 1242.88 127.35 1237.9 124.748C1233.04 122.145 1227.73 120.844 1221.96 120.844C1216.31 120.844 1211 122.145 1206.02 124.748C1201.16 127.35 1196.97 130.914 1193.47 135.44C1190.08 139.853 1187.59 144.945 1186.01 150.716ZM1444.75 84.8624H1491.56V254.587H1444.58L1442.38 236.936C1437.97 243.499 1432.31 248.817 1425.42 252.89C1418.52 256.963 1410.43 259 1401.16 259C1388.5 259 1376.68 256.624 1365.72 251.872C1354.75 247.119 1345.08 240.557 1336.71 232.184C1328.35 223.811 1321.79 214.136 1317.04 203.161C1312.41 192.072 1310.09 180.191 1310.09 167.518C1310.09 155.411 1312.29 144.096 1316.7 133.573C1321.11 123.05 1327.33 113.772 1335.36 105.739C1343.39 97.705 1352.6 91.4252 1363 86.8991C1373.52 82.373 1384.83 80.1101 1396.92 80.1101C1407.33 80.1101 1416.65 82.3165 1424.91 86.7294C1433.28 91.1422 1440.57 96.7431 1446.78 103.532L1444.75 84.8624ZM1399.98 214.023C1407.67 214.023 1414.62 212.043 1420.84 208.083C1427.06 204.122 1431.97 198.804 1435.59 192.128C1439.21 185.339 1441.02 177.872 1441.02 169.725C1441.02 161.465 1439.21 153.997 1435.59 147.321C1431.97 140.645 1427.06 135.327 1420.84 131.367C1414.62 127.407 1407.67 125.427 1399.98 125.427C1392.17 125.427 1385.11 127.407 1378.78 131.367C1372.44 135.327 1367.41 140.702 1363.68 147.491C1359.95 154.167 1358.08 161.578 1358.08 169.725C1358.08 177.872 1359.95 185.339 1363.68 192.128C1367.53 198.804 1372.61 204.122 1378.94 208.083C1385.28 212.043 1392.29 214.023 1399.98 214.023ZM1512.07 254.587V84.8624H1558.88V97.422C1564.65 91.9908 1571.32 87.7477 1578.89 84.6927C1586.47 81.6376 1594.5 80.1101 1602.98 80.1101C1614.51 80.1101 1625.08 82.7692 1634.69 88.0872C1644.42 93.4051 1652.22 100.477 1658.1 109.303C1664.09 100.477 1671.89 93.4051 1681.5 88.0872C1691.11 82.7692 1701.63 80.1101 1713.05 80.1101C1725.37 80.1101 1736.51 83.1087 1746.46 89.1055C1756.52 95.1024 1764.55 103.136 1770.54 113.206C1776.54 123.164 1779.53 134.309 1779.53 146.642V254.587H1732.72V159.541C1732.72 153.657 1731.25 148.339 1728.31 143.587C1725.49 138.722 1721.7 134.875 1716.95 132.046C1712.2 129.104 1706.89 127.633 1701.01 127.633C1695.13 127.633 1689.76 129.047 1684.89 131.876C1680.14 134.705 1676.3 138.552 1673.36 143.417C1670.54 148.17 1669.12 153.544 1669.12 159.541V254.587H1622.31V159.541C1622.31 153.544 1620.9 148.17 1618.07 143.417C1615.25 138.552 1611.4 134.705 1606.54 131.876C1601.79 129.047 1596.48 127.633 1590.6 127.633C1584.83 127.633 1579.52 129.104 1574.65 132.046C1569.9 134.875 1566.06 138.722 1563.12 143.587C1560.3 148.339 1558.88 153.657 1558.88 159.541V254.587H1512.07ZM1849.29 257.642C1840.59 256.963 1832.22 255.153 1824.19 252.211C1816.17 249.156 1808.99 245.083 1802.65 239.991C1796.44 234.786 1791.57 228.563 1788.07 221.321L1827.42 204.349C1828.66 206.159 1830.53 208.139 1833.01 210.289C1835.5 212.326 1838.5 214.136 1842 215.72C1845.62 217.304 1849.8 218.096 1854.55 218.096C1858.06 218.096 1861.45 217.7 1864.73 216.908C1868.01 216.003 1870.66 214.589 1872.7 212.665C1874.73 210.628 1875.75 207.969 1875.75 204.688C1875.75 201.067 1874.45 198.295 1871.85 196.372C1869.25 194.448 1866.08 193.034 1862.35 192.128C1858.74 191.11 1855.23 190.261 1851.84 189.583C1841.44 187.772 1831.6 184.547 1822.33 179.908C1813.17 175.156 1805.71 169.046 1799.94 161.578C1794.17 154.11 1791.29 145.171 1791.29 134.761C1791.29 123.333 1794.29 113.489 1800.28 105.229C1806.27 96.8564 1814.08 90.4068 1823.68 85.8807C1833.3 81.3547 1843.7 79.0918 1854.89 79.0918C1868.12 79.0918 1880.39 81.8638 1891.69 87.4083C1903 92.9527 1912.1 100.76 1919 110.83L1882.03 132.725C1880.56 130.575 1878.63 128.538 1876.26 126.615C1874 124.578 1871.34 122.881 1868.29 121.523C1865.35 120.052 1862.18 119.203 1858.79 118.977C1854.38 118.638 1850.37 118.921 1846.75 119.826C1843.13 120.618 1840.25 122.145 1838.1 124.408C1836.07 126.671 1835.05 129.726 1835.05 133.573C1835.05 137.307 1836.69 140.079 1839.97 141.89C1843.25 143.587 1847.03 144.888 1851.33 145.794C1855.63 146.586 1859.41 147.547 1862.69 148.679C1872.53 151.847 1881.75 155.921 1890.34 160.899C1899.05 165.765 1906.05 171.761 1911.37 178.89C1916.68 186.018 1919.17 194.391 1918.83 204.009C1918.83 215.211 1915.5 225.055 1908.82 233.541C1902.15 241.914 1893.5 248.307 1882.88 252.72C1872.36 257.02 1861.17 258.661 1849.29 257.642Z"/>
</mask>
<path d="M86.1569 254.587L0 16.9725H49.6929L116.346 200.445L182.999 16.9725H232.522L146.365 254.587H86.1569ZM239.95 84.8624H286.759V254.587H239.95V84.8624ZM263.694 65.3441C256.91 65.3441 251.2 63.0811 246.564 58.5551C241.929 54.029 239.611 48.4281 239.611 41.7523C239.611 35.0766 241.929 29.4756 246.564 24.9496C251.2 20.4236 256.854 18.1606 263.524 18.1606C270.196 18.1606 275.793 20.4236 280.314 24.9496C284.952 29.4756 287.268 35.0766 287.268 41.7523C287.268 48.4281 285.007 54.029 280.484 58.5551C276.074 63.0811 270.477 65.3441 263.694 65.3441ZM419.643 254.587H359.096L297.361 84.8624H347.224L389.285 200.784L431.346 84.8624H481.378L419.643 254.587ZM492.057 84.8624H538.867V254.587H492.057V84.8624ZM515.801 65.3441C509.017 65.3441 503.309 63.0811 498.672 58.5551C494.037 54.029 491.718 48.4281 491.718 41.7523C491.718 35.0766 494.037 29.4756 498.672 24.9496C503.309 20.4236 508.962 18.1606 515.632 18.1606C522.304 18.1606 527.901 20.4236 532.422 24.9496C537.06 29.4756 539.376 35.0766 539.376 41.7523C539.376 48.4281 537.115 54.029 532.592 58.5551C528.182 63.0811 522.585 65.3441 515.801 65.3441ZM685.958 0H732.768V254.587H685.958V236.596C680.759 243.159 674.314 248.534 666.624 252.72C658.936 256.907 650.172 259 640.336 259C628.013 259 616.48 256.68 605.737 252.041C594.997 247.402 585.499 241.009 577.244 232.862C569.104 224.602 562.717 215.098 558.079 204.349C553.445 193.599 551.126 182.058 551.126 169.725C551.126 157.391 553.445 145.85 558.079 135.101C562.717 124.352 569.104 114.904 577.244 106.757C585.499 98.4969 594.997 92.0473 605.737 87.4083C616.48 82.7692 628.013 80.4496 640.336 80.4496C650.172 80.4496 658.936 82.5427 666.624 86.7294C674.314 90.8028 680.759 96.1775 685.958 102.853V0ZM641.014 214.023C648.704 214.023 655.658 212.043 661.875 208.083C668.094 204.122 673.013 198.804 676.63 192.128C680.25 185.339 682.057 177.872 682.057 169.725C682.057 161.465 680.25 153.997 676.63 147.321C673.013 140.645 668.094 135.327 661.875 131.367C655.658 127.407 648.704 125.427 641.014 125.427C633.212 125.427 626.148 127.407 619.814 131.367C613.483 135.327 608.451 140.702 604.72 147.491C600.988 154.167 599.123 161.578 599.123 169.725C599.123 177.872 600.988 185.339 604.72 192.128C608.565 198.804 613.653 204.122 619.984 208.083C626.317 212.043 633.326 214.023 641.014 214.023ZM827.985 254.587V16.9725H906.68C923.075 16.9725 938.395 20.0841 952.641 26.3074C967.002 32.4174 979.608 40.9602 990.462 51.9358C1001.43 62.7982 1009.97 75.4143 1016.07 89.7844C1022.29 104.041 1025.4 119.373 1025.4 135.78C1025.4 152.187 1022.29 167.575 1016.07 181.945C1009.97 196.202 1001.43 208.818 990.462 219.794C979.608 230.656 967.002 239.199 952.641 245.422C938.395 251.532 923.075 254.587 906.68 254.587H827.985ZM874.795 207.743H906.68C916.405 207.743 925.564 205.876 934.155 202.142C942.863 198.408 950.55 193.26 957.221 186.697C963.893 180.134 969.093 172.497 972.824 163.784C976.669 155.072 978.59 145.737 978.59 135.78C978.59 125.823 976.669 116.544 972.824 107.945C969.093 99.2325 963.893 91.5949 957.221 85.0321C950.664 78.3564 943.032 73.1514 934.325 69.4174C925.733 65.6835 916.516 63.8165 906.68 63.8165H874.795V207.743ZM1040.83 254.587L1040.66 84.8624H1087.47L1087.64 97.422C1093.3 91.9908 1099.91 87.7477 1107.48 84.6927C1115.17 81.6376 1123.26 80.1101 1131.74 80.1101C1137.96 80.1101 1144.18 81.0152 1150.39 82.8257L1131.91 130.179C1127.84 128.482 1123.71 127.633 1119.53 127.633C1113.65 127.633 1108.28 129.047 1103.41 131.876C1098.55 134.705 1094.71 138.552 1091.88 143.417C1089.06 148.17 1087.64 153.544 1087.64 159.541V254.587H1040.83ZM1221.96 259C1206.36 259 1192.11 254.983 1179.22 246.95C1166.45 238.916 1156.21 228.11 1148.52 214.532C1140.95 200.954 1137.16 185.962 1137.16 169.555C1137.16 157.222 1139.37 145.68 1143.78 134.931C1148.19 124.069 1154.24 114.564 1161.92 106.417C1169.72 98.1574 1178.77 91.7079 1189.06 87.0688C1199.35 82.4298 1210.32 80.1101 1221.96 80.1101C1235.42 80.1101 1247.68 82.9954 1258.76 88.7661C1269.96 94.5367 1279.4 102.401 1287.09 112.358C1294.89 122.315 1300.43 133.573 1303.71 146.133C1307.1 158.693 1307.67 171.761 1305.4 185.339H1187.7C1189.17 190.318 1191.43 194.844 1194.49 198.917C1197.65 202.878 1201.5 206.046 1206.02 208.422C1210.66 210.798 1215.97 212.043 1221.96 212.156C1227.84 212.269 1233.27 210.911 1238.24 208.083C1243.22 205.254 1247.46 201.463 1250.96 196.711L1298.79 207.743C1291.89 222.792 1281.6 235.125 1267.92 244.743C1254.24 254.248 1238.92 259 1221.96 259ZM1186.01 150.716H1258.09C1256.62 145.058 1254.13 139.966 1250.62 135.44C1247.12 130.914 1242.88 127.35 1237.9 124.748C1233.04 122.145 1227.73 120.844 1221.96 120.844C1216.31 120.844 1211 122.145 1206.02 124.748C1201.16 127.35 1196.97 130.914 1193.47 135.44C1190.08 139.853 1187.59 144.945 1186.01 150.716ZM1444.75 84.8624H1491.56V254.587H1444.58L1442.38 236.936C1437.97 243.499 1432.31 248.817 1425.42 252.89C1418.52 256.963 1410.43 259 1401.16 259C1388.5 259 1376.68 256.624 1365.72 251.872C1354.75 247.119 1345.08 240.557 1336.71 232.184C1328.35 223.811 1321.79 214.136 1317.04 203.161C1312.41 192.072 1310.09 180.191 1310.09 167.518C1310.09 155.411 1312.29 144.096 1316.7 133.573C1321.11 123.05 1327.33 113.772 1335.36 105.739C1343.39 97.705 1352.6 91.4252 1363 86.8991C1373.52 82.373 1384.83 80.1101 1396.92 80.1101C1407.33 80.1101 1416.65 82.3165 1424.91 86.7294C1433.28 91.1422 1440.57 96.7431 1446.78 103.532L1444.75 84.8624ZM1399.98 214.023C1407.67 214.023 1414.62 212.043 1420.84 208.083C1427.06 204.122 1431.97 198.804 1435.59 192.128C1439.21 185.339 1441.02 177.872 1441.02 169.725C1441.02 161.465 1439.21 153.997 1435.59 147.321C1431.97 140.645 1427.06 135.327 1420.84 131.367C1414.62 127.407 1407.67 125.427 1399.98 125.427C1392.17 125.427 1385.11 127.407 1378.78 131.367C1372.44 135.327 1367.41 140.702 1363.68 147.491C1359.95 154.167 1358.08 161.578 1358.08 169.725C1358.08 177.872 1359.95 185.339 1363.68 192.128C1367.53 198.804 1372.61 204.122 1378.94 208.083C1385.28 212.043 1392.29 214.023 1399.98 214.023ZM1512.07 254.587V84.8624H1558.88V97.422C1564.65 91.9908 1571.32 87.7477 1578.89 84.6927C1586.47 81.6376 1594.5 80.1101 1602.98 80.1101C1614.51 80.1101 1625.08 82.7692 1634.69 88.0872C1644.42 93.4051 1652.22 100.477 1658.1 109.303C1664.09 100.477 1671.89 93.4051 1681.5 88.0872C1691.11 82.7692 1701.63 80.1101 1713.05 80.1101C1725.37 80.1101 1736.51 83.1087 1746.46 89.1055C1756.52 95.1024 1764.55 103.136 1770.54 113.206C1776.54 123.164 1779.53 134.309 1779.53 146.642V254.587H1732.72V159.541C1732.72 153.657 1731.25 148.339 1728.31 143.587C1725.49 138.722 1721.7 134.875 1716.95 132.046C1712.2 129.104 1706.89 127.633 1701.01 127.633C1695.13 127.633 1689.76 129.047 1684.89 131.876C1680.14 134.705 1676.3 138.552 1673.36 143.417C1670.54 148.17 1669.12 153.544 1669.12 159.541V254.587H1622.31V159.541C1622.31 153.544 1620.9 148.17 1618.07 143.417C1615.25 138.552 1611.4 134.705 1606.54 131.876C1601.79 129.047 1596.48 127.633 1590.6 127.633C1584.83 127.633 1579.52 129.104 1574.65 132.046C1569.9 134.875 1566.06 138.722 1563.12 143.587C1560.3 148.339 1558.88 153.657 1558.88 159.541V254.587H1512.07ZM1849.29 257.642C1840.59 256.963 1832.22 255.153 1824.19 252.211C1816.17 249.156 1808.99 245.083 1802.65 239.991C1796.44 234.786 1791.57 228.563 1788.07 221.321L1827.42 204.349C1828.66 206.159 1830.53 208.139 1833.01 210.289C1835.5 212.326 1838.5 214.136 1842 215.72C1845.62 217.304 1849.8 218.096 1854.55 218.096C1858.06 218.096 1861.45 217.7 1864.73 216.908C1868.01 216.003 1870.66 214.589 1872.7 212.665C1874.73 210.628 1875.75 207.969 1875.75 204.688C1875.75 201.067 1874.45 198.295 1871.85 196.372C1869.25 194.448 1866.08 193.034 1862.35 192.128C1858.74 191.11 1855.23 190.261 1851.84 189.583C1841.44 187.772 1831.6 184.547 1822.33 179.908C1813.17 175.156 1805.71 169.046 1799.94 161.578C1794.17 154.11 1791.29 145.171 1791.29 134.761C1791.29 123.333 1794.29 113.489 1800.28 105.229C1806.27 96.8564 1814.08 90.4068 1823.68 85.8807C1833.3 81.3547 1843.7 79.0918 1854.89 79.0918C1868.12 79.0918 1880.39 81.8638 1891.69 87.4083C1903 92.9527 1912.1 100.76 1919 110.83L1882.03 132.725C1880.56 130.575 1878.63 128.538 1876.26 126.615C1874 124.578 1871.34 122.881 1868.29 121.523C1865.35 120.052 1862.18 119.203 1858.79 118.977C1854.38 118.638 1850.37 118.921 1846.75 119.826C1843.13 120.618 1840.25 122.145 1838.1 124.408C1836.07 126.671 1835.05 129.726 1835.05 133.573C1835.05 137.307 1836.69 140.079 1839.97 141.89C1843.25 143.587 1847.03 144.888 1851.33 145.794C1855.63 146.586 1859.41 147.547 1862.69 148.679C1872.53 151.847 1881.75 155.921 1890.34 160.899C1899.05 165.765 1906.05 171.761 1911.37 178.89C1916.68 186.018 1919.17 194.391 1918.83 204.009C1918.83 215.211 1915.5 225.055 1908.82 233.541C1902.15 241.914 1893.5 248.307 1882.88 252.72C1872.36 257.02 1861.17 258.661 1849.29 257.642Z" stroke="white" stroke-width="6" mask="url(#path-1-inside-1_20_219)"/>
</svg>
