<svg width="295" height="47" viewBox="0 0 295 47" fill="none" xmlns="http://www.w3.org/2000/svg">
<path d="M10.9551 1.22583C13.1372 1.22583 14.9061 2.99476 14.9061 5.17685V6.79318C14.9061 8.97527 16.675 10.7442 18.8571 10.7442H30.5306C32.7127 10.7442 34.4816 12.5131 34.4816 14.6952V26.3687C34.4816 28.5507 36.2506 30.3197 38.4327 30.3197H40.049C42.231 30.3197 44 32.0887 44 34.2707V41.2748C44 43.4568 42.231 45.2258 40.049 45.2258H33.0449C30.8629 45.2258 29.0939 43.4568 29.0939 41.2748V39.6585C29.0939 37.4764 27.3249 35.7075 25.1429 35.7075H13.4694C11.2873 35.7075 9.51837 33.9385 9.51837 31.7564V20.083C9.51837 17.9009 7.74944 16.132 5.56735 16.132H3.95102C1.76893 16.132 0 14.363 0 12.1809V5.17685C0 2.99476 1.76893 1.22583 3.95102 1.22583H10.9551Z" fill="white"/>
<path d="M77 38L66.84 10H72.7L80.56 31.62L88.42 10H94.26L84.1 38H77ZM95.1359 18H100.656V38H95.1359V18ZM97.9359 15.7C97.1359 15.7 96.4626 15.4333 95.9159 14.9C95.3693 14.3667 95.0959 13.7067 95.0959 12.92C95.0959 12.1333 95.3693 11.4733 95.9159 10.94C96.4626 10.4067 97.1293 10.14 97.9159 10.14C98.7026 10.14 99.3626 10.4067 99.8959 10.94C100.443 11.4733 100.716 12.1333 100.716 12.92C100.716 13.7067 100.449 14.3667 99.9159 14.9C99.3959 15.4333 98.7359 15.7 97.9359 15.7ZM116.365 38H109.225L101.945 18H107.825L112.785 31.66L117.745 18H123.645L116.365 38ZM124.944 18H130.464V38H124.944V18ZM127.744 15.7C126.944 15.7 126.27 15.4333 125.724 14.9C125.177 14.3667 124.904 13.7067 124.904 12.92C124.904 12.1333 125.177 11.4733 125.724 10.94C126.27 10.4067 126.937 10.14 127.724 10.14C128.51 10.14 129.17 10.4067 129.704 10.94C130.25 11.4733 130.524 12.1333 130.524 12.92C130.524 13.7067 130.257 14.3667 129.724 14.9C129.204 15.4333 128.544 15.7 127.744 15.7ZM147.809 8H153.329V38H147.809V35.88C147.196 36.6533 146.436 37.2867 145.529 37.78C144.623 38.2733 143.589 38.52 142.429 38.52C140.976 38.52 139.616 38.2467 138.349 37.7C137.083 37.1533 135.963 36.4 134.989 35.44C134.029 34.4667 133.276 33.3467 132.729 32.08C132.183 30.8133 131.909 29.4533 131.909 28C131.909 26.5467 132.183 25.1867 132.729 23.92C133.276 22.6533 134.029 21.54 134.989 20.58C135.963 19.6067 137.083 18.8467 138.349 18.3C139.616 17.7533 140.976 17.48 142.429 17.48C143.589 17.48 144.623 17.7267 145.529 18.22C146.436 18.7 147.196 19.3333 147.809 20.12V8ZM142.509 33.22C143.416 33.22 144.236 32.9867 144.969 32.52C145.703 32.0533 146.283 31.4267 146.709 30.64C147.136 29.84 147.349 28.96 147.349 28C147.349 27.0267 147.136 26.1467 146.709 25.36C146.283 24.5733 145.703 23.9467 144.969 23.48C144.236 23.0133 143.416 22.78 142.509 22.78C141.589 22.78 140.756 23.0133 140.009 23.48C139.263 23.9467 138.669 24.58 138.229 25.38C137.789 26.1667 137.569 27.04 137.569 28C137.569 28.96 137.789 29.84 138.229 30.64C138.683 31.4267 139.283 32.0533 140.029 32.52C140.776 32.9867 141.603 33.22 142.509 33.22ZM164.558 38V10H173.838C175.771 10 177.578 10.3667 179.258 11.1C180.951 11.82 182.438 12.8267 183.718 14.12C185.011 15.4 186.018 16.8867 186.738 18.58C187.471 20.26 187.838 22.0667 187.838 24C187.838 25.9333 187.471 27.7467 186.738 29.44C186.018 31.12 185.011 32.6067 183.718 33.9C182.438 35.18 180.951 36.1867 179.258 36.92C177.578 37.64 175.771 38 173.838 38H164.558ZM170.078 32.48H173.838C174.984 32.48 176.064 32.26 177.078 31.82C178.104 31.38 179.011 30.7733 179.798 30C180.584 29.2267 181.198 28.3267 181.638 27.3C182.091 26.2733 182.318 25.1733 182.318 24C182.318 22.8267 182.091 21.7333 181.638 20.72C181.198 19.6933 180.584 18.7933 179.798 18.02C179.024 17.2333 178.124 16.62 177.098 16.18C176.084 15.74 174.998 15.52 173.838 15.52H170.078V32.48ZM189.658 38L189.638 18H195.158L195.178 19.48C195.844 18.84 196.624 18.34 197.518 17.98C198.424 17.62 199.378 17.44 200.378 17.44C201.111 17.44 201.844 17.5467 202.578 17.76L200.398 23.34C199.918 23.14 199.431 23.04 198.938 23.04C198.244 23.04 197.611 23.2067 197.038 23.54C196.464 23.8733 196.011 24.3267 195.678 24.9C195.344 25.46 195.178 26.0933 195.178 26.8V38H189.658ZM211.017 38.52C209.177 38.52 207.497 38.0467 205.977 37.1C204.471 36.1533 203.264 34.88 202.357 33.28C201.464 31.68 201.017 29.9133 201.017 27.98C201.017 26.5267 201.277 25.1667 201.797 23.9C202.317 22.62 203.031 21.5 203.937 20.54C204.857 19.5667 205.924 18.8067 207.137 18.26C208.351 17.7133 209.644 17.44 211.017 17.44C212.604 17.44 214.051 17.78 215.357 18.46C216.677 19.14 217.791 20.0667 218.697 21.24C219.617 22.4133 220.271 23.74 220.657 25.22C221.057 26.7 221.124 28.24 220.857 29.84H206.977C207.151 30.4267 207.417 30.96 207.777 31.44C208.151 31.9067 208.604 32.28 209.137 32.56C209.684 32.84 210.311 32.9867 211.017 33C211.711 33.0133 212.351 32.8533 212.937 32.52C213.524 32.1867 214.024 31.74 214.437 31.18L220.077 32.48C219.264 34.2533 218.051 35.7067 216.437 36.84C214.824 37.96 213.017 38.52 211.017 38.52ZM206.777 25.76H215.277C215.104 25.0933 214.811 24.4933 214.397 23.96C213.984 23.4267 213.484 23.0067 212.897 22.7C212.324 22.3933 211.697 22.24 211.017 22.24C210.351 22.24 209.724 22.3933 209.137 22.7C208.564 23.0067 208.071 23.4267 207.657 23.96C207.257 24.48 206.964 25.08 206.777 25.76ZM237.289 18H242.809V38H237.269L237.009 35.92C236.489 36.6933 235.823 37.32 235.009 37.8C234.196 38.28 233.243 38.52 232.149 38.52C230.656 38.52 229.263 38.24 227.969 37.68C226.676 37.12 225.536 36.3467 224.549 35.36C223.563 34.3733 222.789 33.2333 222.229 31.94C221.683 30.6333 221.409 29.2333 221.409 27.74C221.409 26.3133 221.669 24.98 222.189 23.74C222.709 22.5 223.443 21.4067 224.389 20.46C225.336 19.5133 226.423 18.7733 227.649 18.24C228.889 17.7067 230.223 17.44 231.649 17.44C232.876 17.44 233.976 17.7 234.949 18.22C235.936 18.74 236.796 19.4 237.529 20.2L237.289 18ZM232.009 33.22C232.916 33.22 233.736 32.9867 234.469 32.52C235.203 32.0533 235.783 31.4267 236.209 30.64C236.636 29.84 236.849 28.96 236.849 28C236.849 27.0267 236.636 26.1467 236.209 25.36C235.783 24.5733 235.203 23.9467 234.469 23.48C233.736 23.0133 232.916 22.78 232.009 22.78C231.089 22.78 230.256 23.0133 229.509 23.48C228.763 23.9467 228.169 24.58 227.729 25.38C227.289 26.1667 227.069 27.04 227.069 28C227.069 28.96 227.289 29.84 227.729 30.64C228.183 31.4267 228.783 32.0533 229.529 32.52C230.276 32.9867 231.103 33.22 232.009 33.22ZM245.228 38V18H250.748V19.48C251.428 18.84 252.215 18.34 253.108 17.98C254.001 17.62 254.948 17.44 255.948 17.44C257.308 17.44 258.555 17.7533 259.688 18.38C260.835 19.0067 261.755 19.84 262.448 20.88C263.155 19.84 264.075 19.0067 265.208 18.38C266.341 17.7533 267.581 17.44 268.928 17.44C270.381 17.44 271.695 17.7933 272.868 18.5C274.055 19.2067 275.001 20.1533 275.708 21.34C276.415 22.5133 276.768 23.8267 276.768 25.28V38H271.248V26.8C271.248 26.1067 271.075 25.48 270.728 24.92C270.395 24.3467 269.948 23.8933 269.388 23.56C268.828 23.2133 268.201 23.04 267.508 23.04C266.815 23.04 266.181 23.2067 265.608 23.54C265.048 23.8733 264.595 24.3267 264.248 24.9C263.915 25.46 263.748 26.0933 263.748 26.8V38H258.228V26.8C258.228 26.0933 258.061 25.46 257.728 24.9C257.395 24.3267 256.941 23.8733 256.368 23.54C255.808 23.2067 255.181 23.04 254.488 23.04C253.808 23.04 253.181 23.2133 252.608 23.56C252.048 23.8933 251.595 24.3467 251.248 24.92C250.915 25.48 250.748 26.1067 250.748 26.8V38H245.228ZM284.995 38.36C283.968 38.28 282.982 38.0667 282.035 37.72C281.088 37.36 280.242 36.88 279.495 36.28C278.762 35.6667 278.188 34.9333 277.775 34.08L282.415 32.08C282.562 32.2933 282.782 32.5267 283.075 32.78C283.368 33.02 283.722 33.2333 284.135 33.42C284.562 33.6067 285.055 33.7 285.615 33.7C286.028 33.7 286.428 33.6533 286.815 33.56C287.202 33.4533 287.515 33.2867 287.755 33.06C287.995 32.82 288.115 32.5067 288.115 32.12C288.115 31.6933 287.962 31.3667 287.655 31.14C287.348 30.9133 286.975 30.7467 286.535 30.64C286.108 30.52 285.695 30.42 285.295 30.34C284.068 30.1267 282.908 29.7467 281.815 29.2C280.735 28.64 279.855 27.92 279.175 27.04C278.495 26.16 278.155 25.1067 278.155 23.88C278.155 22.5333 278.508 21.3733 279.215 20.4C279.922 19.4133 280.842 18.6533 281.975 18.12C283.108 17.5867 284.335 17.32 285.655 17.32C287.215 17.32 288.662 17.6467 289.995 18.3C291.328 18.9533 292.402 19.8733 293.215 21.06L288.855 23.64C288.682 23.3867 288.455 23.1467 288.175 22.92C287.908 22.68 287.595 22.48 287.235 22.32C286.888 22.1467 286.515 22.0467 286.115 22.02C285.595 21.98 285.122 22.0133 284.695 22.12C284.268 22.2133 283.928 22.3933 283.675 22.66C283.435 22.9267 283.315 23.2867 283.315 23.74C283.315 24.18 283.508 24.5067 283.895 24.72C284.282 24.92 284.728 25.0733 285.235 25.18C285.742 25.2733 286.188 25.3867 286.575 25.52C287.735 25.8933 288.822 26.3733 289.835 26.96C290.862 27.5333 291.688 28.24 292.315 29.08C292.942 29.92 293.235 30.9067 293.195 32.04C293.195 33.36 292.802 34.52 292.015 35.52C291.228 36.5067 290.208 37.26 288.955 37.78C287.715 38.2867 286.395 38.48 284.995 38.36Z" fill="white"/>
</svg>
