<svg xmlns="http://www.w3.org/2000/svg" width="459" height="48" viewBox="0 0 459 48" fill="none">
<a href="https://www.vividdreams.space/"><path xmlns="http://www.w3.org/2000/svg" d="M10.9551 2C13.1372 2 14.9061 3.76893 14.9061 5.95102V7.56735C14.9061 9.74944 16.675 11.5184 18.8571 11.5184H30.5306C32.7127 11.5184 34.4816 13.2873 34.4816 15.4694V27.1429C34.4816 29.3249 36.2506 31.0939 38.4327 31.0939H40.049C42.231 31.0939 44 32.8629 44 35.0449V42.049C44 44.231 42.231 46 40.049 46H33.0449C30.8629 46 29.0939 44.231 29.0939 42.049V40.4327C29.0939 38.2506 27.3249 36.4816 25.1429 36.4816H13.4694C11.2873 36.4816 9.51837 34.7127 9.51837 32.5306V20.8571C9.51837 18.675 7.74944 16.9061 5.56735 16.9061H3.95102C1.76893 16.9061 0 15.1372 0 12.9551V5.95102C0 3.76893 1.76893 2 3.95102 2H10.9551Z" fill="white"/></a>
<a href="https://www.vividdreams.space/"><path xmlns="http://www.w3.org/2000/svg" d="M77 38.7742L66.84 10.7742H72.7L80.56 32.3942L88.42 10.7742H94.26L84.1 38.7742H77ZM95.1359 18.7742H100.656V38.7742H95.1359V18.7742ZM97.9359 16.4742C97.1359 16.4742 96.4626 16.2075 95.9159 15.6742C95.3693 15.1408 95.0959 14.4808 95.0959 13.6942C95.0959 12.9075 95.3693 12.2475 95.9159 11.7142C96.4626 11.1808 97.1293 10.9142 97.9159 10.9142C98.7026 10.9142 99.3626 11.1808 99.8959 11.7142C100.443 12.2475 100.716 12.9075 100.716 13.6942C100.716 14.4808 100.449 15.1408 99.9159 15.6742C99.3959 16.2075 98.7359 16.4742 97.9359 16.4742ZM116.326 38.7742H109.186L101.906 18.7742H107.786L112.746 32.4342L117.706 18.7742H123.606L116.326 38.7742ZM124.866 18.7742H130.386V38.7742H124.866V18.7742ZM127.666 16.4742C126.866 16.4742 126.192 16.2075 125.646 15.6742C125.099 15.1408 124.826 14.4808 124.826 13.6942C124.826 12.9075 125.099 12.2475 125.646 11.7142C126.192 11.1808 126.859 10.9142 127.646 10.9142C128.432 10.9142 129.092 11.1808 129.626 11.7142C130.172 12.2475 130.446 12.9075 130.446 13.6942C130.446 14.4808 130.179 15.1408 129.646 15.6742C129.126 16.2075 128.466 16.4742 127.666 16.4742ZM147.731 8.77417H153.251V38.7742H147.731V36.6542C147.118 37.4275 146.358 38.0608 145.451 38.5542C144.545 39.0475 143.511 39.2942 142.351 39.2942C140.898 39.2942 139.538 39.0208 138.271 38.4742C137.005 37.9275 135.885 37.1742 134.911 36.2142C133.951 35.2408 133.198 34.1208 132.651 32.8542C132.105 31.5875 131.831 30.2275 131.831 28.7742C131.831 27.3208 132.105 25.9608 132.651 24.6942C133.198 23.4275 133.951 22.3142 134.911 21.3542C135.885 20.3808 137.005 19.6208 138.271 19.0742C139.538 18.5275 140.898 18.2542 142.351 18.2542C143.511 18.2542 144.545 18.5008 145.451 18.9942C146.358 19.4742 147.118 20.1075 147.731 20.8942V8.77417ZM142.431 33.9942C143.338 33.9942 144.158 33.7608 144.891 33.2942C145.625 32.8275 146.205 32.2008 146.631 31.4142C147.058 30.6142 147.271 29.7342 147.271 28.7742C147.271 27.8008 147.058 26.9208 146.631 26.1342C146.205 25.3475 145.625 24.7208 144.891 24.2542C144.158 23.7875 143.338 23.5542 142.431 23.5542C141.511 23.5542 140.678 23.7875 139.931 24.2542C139.185 24.7208 138.591 25.3542 138.151 26.1542C137.711 26.9408 137.491 27.8142 137.491 28.7742C137.491 29.7342 137.711 30.6142 138.151 31.4142C138.605 32.2008 139.205 32.8275 139.951 33.2942C140.698 33.7608 141.525 33.9942 142.431 33.9942ZM164.48 38.7742V10.7742H173.76C175.693 10.7742 177.5 11.1408 179.18 11.8742C180.873 12.5942 182.36 13.6008 183.64 14.8942C184.933 16.1742 185.94 17.6608 186.66 19.3542C187.393 21.0342 187.76 22.8408 187.76 24.7742C187.76 26.7075 187.393 28.5208 186.66 30.2142C185.94 31.8942 184.933 33.3808 183.64 34.6742C182.36 35.9542 180.873 36.9608 179.18 37.6942C177.5 38.4142 175.693 38.7742 173.76 38.7742H164.48ZM170 33.2542H173.76C174.906 33.2542 175.986 33.0342 177 32.5942C178.026 32.1542 178.933 31.5475 179.72 30.7742C180.506 30.0008 181.12 29.1008 181.56 28.0742C182.013 27.0475 182.24 25.9475 182.24 24.7742C182.24 23.6008 182.013 22.5075 181.56 21.4942C181.12 20.4675 180.506 19.5675 179.72 18.7942C178.946 18.0075 178.046 17.3942 177.02 16.9542C176.006 16.5142 174.92 16.2942 173.76 16.2942H170V33.2542ZM189.579 38.7742L189.559 18.7742H195.079L195.099 20.2542C195.766 19.6142 196.546 19.1142 197.439 18.7542C198.346 18.3942 199.299 18.2142 200.299 18.2142C201.033 18.2142 201.766 18.3208 202.499 18.5342L200.319 24.1142C199.839 23.9142 199.353 23.8142 198.859 23.8142C198.166 23.8142 197.533 23.9808 196.959 24.3142C196.386 24.6475 195.933 25.1008 195.599 25.6742C195.266 26.2342 195.099 26.8675 195.099 27.5742V38.7742H189.579ZM210.939 39.2942C209.099 39.2942 207.419 38.8208 205.899 37.8742C204.392 36.9275 203.186 35.6542 202.279 34.0542C201.386 32.4542 200.939 30.6875 200.939 28.7542C200.939 27.3008 201.199 25.9408 201.719 24.6742C202.239 23.3942 202.952 22.2742 203.859 21.3142C204.779 20.3408 205.846 19.5808 207.059 19.0342C208.272 18.4875 209.566 18.2142 210.939 18.2142C212.526 18.2142 213.972 18.5542 215.279 19.2342C216.599 19.9142 217.712 20.8408 218.619 22.0142C219.539 23.1875 220.192 24.5142 220.579 25.9942C220.979 27.4742 221.046 29.0142 220.779 30.6142H206.899C207.072 31.2008 207.339 31.7342 207.699 32.2142C208.072 32.6808 208.526 33.0542 209.059 33.3342C209.606 33.6142 210.232 33.7608 210.939 33.7742C211.632 33.7875 212.272 33.6275 212.859 33.2942C213.446 32.9608 213.946 32.5142 214.359 31.9542L219.999 33.2542C219.186 35.0275 217.972 36.4808 216.359 37.6142C214.746 38.7342 212.939 39.2942 210.939 39.2942ZM206.699 26.5342H215.199C215.026 25.8675 214.732 25.2675 214.319 24.7342C213.906 24.2008 213.406 23.7808 212.819 23.4742C212.246 23.1675 211.619 23.0142 210.939 23.0142C210.272 23.0142 209.646 23.1675 209.059 23.4742C208.486 23.7808 207.992 24.2008 207.579 24.7342C207.179 25.2542 206.886 25.8542 206.699 26.5342ZM237.211 18.7742H242.731V38.7742H237.191L236.931 36.6942C236.411 37.4675 235.745 38.0942 234.931 38.5742C234.118 39.0542 233.165 39.2942 232.071 39.2942C230.578 39.2942 229.185 39.0142 227.891 38.4542C226.598 37.8942 225.458 37.1208 224.471 36.1342C223.485 35.1475 222.711 34.0075 222.151 32.7142C221.605 31.4075 221.331 30.0075 221.331 28.5142C221.331 27.0875 221.591 25.7542 222.111 24.5142C222.631 23.2742 223.365 22.1808 224.311 21.2342C225.258 20.2875 226.345 19.5475 227.571 19.0142C228.811 18.4808 230.145 18.2142 231.571 18.2142C232.798 18.2142 233.898 18.4742 234.871 18.9942C235.858 19.5142 236.718 20.1742 237.451 20.9742L237.211 18.7742ZM231.931 33.9942C232.838 33.9942 233.658 33.7608 234.391 33.2942C235.125 32.8275 235.705 32.2008 236.131 31.4142C236.558 30.6142 236.771 29.7342 236.771 28.7742C236.771 27.8008 236.558 26.9208 236.131 26.1342C235.705 25.3475 235.125 24.7208 234.391 24.2542C233.658 23.7875 232.838 23.5542 231.931 23.5542C231.011 23.5542 230.178 23.7875 229.431 24.2542C228.685 24.7208 228.091 25.3542 227.651 26.1542C227.211 26.9408 226.991 27.8142 226.991 28.7742C226.991 29.7342 227.211 30.6142 227.651 31.4142C228.105 32.2008 228.705 32.8275 229.451 33.2942C230.198 33.7608 231.025 33.9942 231.931 33.9942ZM245.15 38.7742V18.7742H250.67V20.2542C251.35 19.6142 252.137 19.1142 253.03 18.7542C253.923 18.3942 254.87 18.2142 255.87 18.2142C257.23 18.2142 258.477 18.5275 259.61 19.1542C260.757 19.7808 261.677 20.6142 262.37 21.6542C263.077 20.6142 263.997 19.7808 265.13 19.1542C266.263 18.5275 267.503 18.2142 268.85 18.2142C270.303 18.2142 271.617 18.5675 272.79 19.2742C273.977 19.9808 274.923 20.9275 275.63 22.1142C276.337 23.2875 276.69 24.6008 276.69 26.0542V38.7742H271.17V27.5742C271.17 26.8808 270.997 26.2542 270.65 25.6942C270.317 25.1208 269.87 24.6675 269.31 24.3342C268.75 23.9875 268.123 23.8142 267.43 23.8142C266.737 23.8142 266.103 23.9808 265.53 24.3142C264.97 24.6475 264.517 25.1008 264.17 25.6742C263.837 26.2342 263.67 26.8675 263.67 27.5742V38.7742H258.15V27.5742C258.15 26.8675 257.983 26.2342 257.65 25.6742C257.317 25.1008 256.863 24.6475 256.29 24.3142C255.73 23.9808 255.103 23.8142 254.41 23.8142C253.73 23.8142 253.103 23.9875 252.53 24.3342C251.97 24.6675 251.517 25.1208 251.17 25.6942C250.837 26.2542 250.67 26.8808 250.67 27.5742V38.7742H245.15ZM284.917 39.1342C283.89 39.0542 282.904 38.8408 281.957 38.4942C281.01 38.1342 280.164 37.6542 279.417 37.0542C278.684 36.4408 278.11 35.7075 277.697 34.8542L282.337 32.8542C282.484 33.0675 282.704 33.3008 282.997 33.5542C283.29 33.7942 283.644 34.0075 284.057 34.1942C284.484 34.3808 284.977 34.4742 285.537 34.4742C285.95 34.4742 286.35 34.4275 286.737 34.3342C287.124 34.2275 287.437 34.0608 287.677 33.8342C287.917 33.5942 288.037 33.2808 288.037 32.8942C288.037 32.4675 287.884 32.1408 287.577 31.9142C287.27 31.6875 286.897 31.5208 286.457 31.4142C286.03 31.2942 285.617 31.1942 285.217 31.1142C283.99 30.9008 282.83 30.5208 281.737 29.9742C280.657 29.4142 279.777 28.6942 279.097 27.8142C278.417 26.9342 278.077 25.8808 278.077 24.6542C278.077 23.3075 278.43 22.1475 279.137 21.1742C279.844 20.1875 280.764 19.4275 281.897 18.8942C283.03 18.3608 284.257 18.0942 285.577 18.0942C287.137 18.0942 288.584 18.4208 289.917 19.0742C291.25 19.7275 292.324 20.6475 293.137 21.8342L288.777 24.4142C288.604 24.1608 288.377 23.9208 288.097 23.6942C287.83 23.4542 287.517 23.2542 287.157 23.0942C286.81 22.9208 286.437 22.8208 286.037 22.7942C285.517 22.7542 285.044 22.7875 284.617 22.8942C284.19 22.9875 283.85 23.1675 283.597 23.4342C283.357 23.7008 283.237 24.0608 283.237 24.5142C283.237 24.9542 283.43 25.2808 283.817 25.4942C284.204 25.6942 284.65 25.8475 285.157 25.9542C285.664 26.0475 286.11 26.1608 286.497 26.2942C287.657 26.6675 288.744 27.1475 289.757 27.7342C290.784 28.3075 291.61 29.0142 292.237 29.8542C292.864 30.6942 293.157 31.6808 293.117 32.8142C293.117 34.1342 292.724 35.2942 291.937 36.2942C291.15 37.2808 290.13 38.0342 288.877 38.5542C287.637 39.0608 286.317 39.2542 284.917 39.1342Z" fill="white"/></a>
<path d="M316 41L316 7" stroke="white" stroke-width="2" stroke-linecap="round"/>
<a href="https://www.vividdreams.space/games/"><path xmlns="http://www.w3.org/2000/svg" d="M352.38 38.52C350.447 38.52 348.64 38.1467 346.96 37.4C345.293 36.64 343.833 35.5933 342.58 34.26C341.34 32.9133 340.367 31.3667 339.66 29.62C338.953 27.86 338.6 25.98 338.6 23.98C338.6 21.9133 338.967 20 339.7 18.24C340.447 16.48 341.46 14.9467 342.74 13.64C344.033 12.3333 345.507 11.32 347.16 10.6C348.827 9.86666 350.587 9.5 352.44 9.5C354.547 9.5 356.553 9.99333 358.46 10.98C360.367 11.9667 362.007 13.3933 363.38 15.26L360.38 16.88C359.353 15.5733 358.133 14.5733 356.72 13.88C355.32 13.1867 353.88 12.84 352.4 12.84C350.987 12.84 349.647 13.1267 348.38 13.7C347.127 14.2733 346.013 15.0733 345.04 16.1C344.08 17.1267 343.327 18.3133 342.78 19.66C342.233 21.0067 341.96 22.4667 341.96 24.04C341.96 25.5733 342.233 27.0133 342.78 28.36C343.327 29.7067 344.073 30.8933 345.02 31.92C345.98 32.9333 347.093 33.7267 348.36 34.3C349.627 34.8733 350.98 35.16 352.42 35.16C353.567 35.16 354.653 34.9667 355.68 34.58C356.72 34.1933 357.673 33.6467 358.54 32.94C359.42 32.2333 360.167 31.4 360.78 30.44C361.407 29.48 361.88 28.4267 362.2 27.28H355.3V24.28H366.12C366.107 26.24 365.733 28.08 365 29.8C364.28 31.52 363.287 33.0333 362.02 34.34C360.767 35.6467 359.313 36.6733 357.66 37.42C356.02 38.1533 354.26 38.52 352.38 38.52ZM384.232 18H387.592V38H384.232L384.092 34.62C383.465 35.78 382.598 36.72 381.492 37.44C380.398 38.16 379.092 38.52 377.572 38.52C376.105 38.52 374.732 38.2467 373.452 37.7C372.172 37.14 371.038 36.3733 370.052 35.4C369.078 34.4133 368.318 33.28 367.772 32C367.225 30.72 366.952 29.34 366.952 27.86C366.952 26.4333 367.218 25.0867 367.752 23.82C368.285 22.5533 369.025 21.4467 369.972 20.5C370.932 19.54 372.038 18.7933 373.292 18.26C374.545 17.7133 375.892 17.44 377.332 17.44C378.905 17.44 380.285 17.8133 381.472 18.56C382.658 19.2933 383.618 20.2467 384.352 21.42L384.232 18ZM377.512 35.26C378.832 35.26 379.972 34.94 380.932 34.3C381.905 33.6467 382.652 32.7667 383.172 31.66C383.705 30.5533 383.972 29.3333 383.972 28C383.972 26.64 383.705 25.4133 383.172 24.32C382.638 23.2133 381.885 22.34 380.912 21.7C379.952 21.0467 378.818 20.72 377.512 20.72C376.192 20.72 374.992 21.0467 373.912 21.7C372.832 22.3533 371.972 23.2333 371.332 24.34C370.705 25.4333 370.392 26.6533 370.392 28C370.392 29.3467 370.718 30.5733 371.372 31.68C372.025 32.7733 372.892 33.6467 373.972 34.3C375.052 34.94 376.232 35.26 377.512 35.26ZM389.989 38V18H393.349V20.5C394.056 19.5667 394.942 18.8267 396.009 18.28C397.089 17.72 398.262 17.44 399.529 17.44C401.009 17.44 402.362 17.8 403.589 18.52C404.816 19.24 405.782 20.1933 406.489 21.38C407.196 20.1933 408.156 19.24 409.369 18.52C410.596 17.8 411.942 17.44 413.409 17.44C414.916 17.44 416.282 17.8067 417.509 18.54C418.736 19.26 419.709 20.2333 420.429 21.46C421.162 22.6867 421.529 24.0533 421.529 25.56V38H418.169V26.36C418.169 25.3733 417.929 24.46 417.449 23.62C416.969 22.78 416.322 22.1067 415.509 21.6C414.696 21.0933 413.796 20.84 412.809 20.84C411.822 20.84 410.922 21.08 410.109 21.56C409.296 22.0267 408.649 22.68 408.169 23.52C407.689 24.3467 407.449 25.2933 407.449 26.36V38H404.089V26.36C404.089 25.2933 403.849 24.3467 403.369 23.52C402.889 22.68 402.236 22.0267 401.409 21.56C400.596 21.08 399.696 20.84 398.709 20.84C397.736 20.84 396.836 21.0933 396.009 21.6C395.196 22.1067 394.549 22.78 394.069 23.62C393.589 24.46 393.349 25.3733 393.349 26.36V38H389.989ZM432.345 38.52C430.505 38.52 428.825 38.0467 427.305 37.1C425.799 36.1533 424.592 34.8867 423.685 33.3C422.792 31.7 422.345 29.9333 422.345 28C422.345 26.5333 422.605 25.1667 423.125 23.9C423.645 22.62 424.359 21.5 425.265 20.54C426.185 19.5667 427.252 18.8067 428.465 18.26C429.679 17.7133 430.972 17.44 432.345 17.44C433.852 17.44 435.232 17.7467 436.485 18.36C437.752 18.96 438.832 19.8 439.725 20.88C440.632 21.96 441.305 23.2133 441.745 24.64C442.199 26.0667 442.365 27.5933 442.245 29.22H425.925C426.085 30.3533 426.459 31.3667 427.045 32.26C427.632 33.14 428.379 33.84 429.285 34.36C430.205 34.88 431.225 35.1467 432.345 35.16C433.545 35.16 434.632 34.8533 435.605 34.24C436.579 33.6133 437.365 32.76 437.965 31.68L441.385 32.48C440.585 34.2533 439.379 35.7067 437.765 36.84C436.152 37.96 434.345 38.52 432.345 38.52ZM425.825 26.58H438.865C438.759 25.46 438.399 24.44 437.785 23.52C437.172 22.5867 436.392 21.84 435.445 21.28C434.499 20.72 433.465 20.44 432.345 20.44C431.225 20.44 430.199 20.7133 429.265 21.26C428.332 21.8067 427.559 22.5467 426.945 23.48C426.345 24.4 425.972 25.4333 425.825 26.58ZM450.194 38.38C449.114 38.34 448.06 38.14 447.034 37.78C446.02 37.4067 445.127 36.9067 444.354 36.28C443.594 35.64 443.04 34.9067 442.694 34.08L445.574 32.84C445.774 33.2933 446.134 33.72 446.654 34.12C447.174 34.52 447.774 34.84 448.454 35.08C449.134 35.32 449.82 35.44 450.514 35.44C451.247 35.44 451.934 35.3267 452.574 35.1C453.214 34.8733 453.734 34.54 454.134 34.1C454.547 33.6467 454.754 33.1067 454.754 32.48C454.754 31.8133 454.527 31.2933 454.074 30.92C453.634 30.5333 453.074 30.2333 452.394 30.02C451.727 29.7933 451.047 29.58 450.354 29.38C448.98 29.0333 447.754 28.62 446.674 28.14C445.594 27.6467 444.74 27.0267 444.114 26.28C443.5 25.52 443.194 24.5533 443.194 23.38C443.194 22.14 443.534 21.0667 444.214 20.16C444.907 19.2533 445.814 18.5533 446.934 18.06C448.054 17.5667 449.254 17.32 450.534 17.32C452.147 17.32 453.62 17.6667 454.954 18.36C456.287 19.0533 457.28 19.9933 457.934 21.18L455.234 22.76C455.007 22.28 454.66 21.86 454.194 21.5C453.727 21.1267 453.194 20.8333 452.594 20.62C451.994 20.4067 451.38 20.2933 450.754 20.28C449.98 20.2533 449.254 20.3533 448.574 20.58C447.907 20.8067 447.367 21.1533 446.954 21.62C446.554 22.0733 446.354 22.64 446.354 23.32C446.354 23.9867 446.567 24.4933 446.994 24.84C447.434 25.1867 448 25.4667 448.694 25.68C449.4 25.88 450.167 26.1133 450.994 26.38C452.207 26.7667 453.34 27.2133 454.394 27.72C455.447 28.2267 456.294 28.86 456.934 29.62C457.587 30.38 457.907 31.32 457.894 32.44C457.894 33.6667 457.527 34.74 456.794 35.66C456.06 36.5667 455.107 37.26 453.934 37.74C452.774 38.22 451.527 38.4333 450.194 38.38Z" fill="white"/></a>
<a xmlns="http://www.w3.org/2000/svg" href="https://www.vividdreams.space/"><path xmlns="http://www.w3.org/2000/svg" d="M10.9551 2C13.1372 2 14.9061 3.76893 14.9061 5.95102V7.56735C14.9061 9.74944 16.675 11.5184 18.8571 11.5184H30.5306C32.7127 11.5184 34.4816 13.2873 34.4816 15.4694V27.1429C34.4816 29.3249 36.2506 31.0939 38.4327 31.0939H40.049C42.231 31.0939 44 32.8629 44 35.0449V42.049C44 44.231 42.231 46 40.049 46H33.0449C30.8629 46 29.0939 44.231 29.0939 42.049V40.4327C29.0939 38.2506 27.3249 36.4816 25.1429 36.4816H13.4694C11.2873 36.4816 9.51837 34.7127 9.51837 32.5306V20.8571C9.51837 18.675 7.74944 16.9061 5.56735 16.9061H3.95102C1.76893 16.9061 0 15.1372 0 12.9551V5.95102C0 3.76893 1.76893 2 3.95102 2H10.9551Z" fill="white"/></a>
<a xmlns="http://www.w3.org/2000/svg" href="https://www.vividdreams.space/"><path xmlns="http://www.w3.org/2000/svg" d="M77 38.7742L66.84 10.7742H72.7L80.56 32.3942L88.42 10.7742H94.26L84.1 38.7742H77ZM95.1359 18.7742H100.656V38.7742H95.1359V18.7742ZM97.9359 16.4742C97.1359 16.4742 96.4626 16.2075 95.9159 15.6742C95.3693 15.1408 95.0959 14.4808 95.0959 13.6942C95.0959 12.9075 95.3693 12.2475 95.9159 11.7142C96.4626 11.1808 97.1293 10.9142 97.9159 10.9142C98.7026 10.9142 99.3626 11.1808 99.8959 11.7142C100.443 12.2475 100.716 12.9075 100.716 13.6942C100.716 14.4808 100.449 15.1408 99.9159 15.6742C99.3959 16.2075 98.7359 16.4742 97.9359 16.4742ZM116.326 38.7742H109.186L101.906 18.7742H107.786L112.746 32.4342L117.706 18.7742H123.606L116.326 38.7742ZM124.866 18.7742H130.386V38.7742H124.866V18.7742ZM127.666 16.4742C126.866 16.4742 126.192 16.2075 125.646 15.6742C125.099 15.1408 124.826 14.4808 124.826 13.6942C124.826 12.9075 125.099 12.2475 125.646 11.7142C126.192 11.1808 126.859 10.9142 127.646 10.9142C128.432 10.9142 129.092 11.1808 129.626 11.7142C130.172 12.2475 130.446 12.9075 130.446 13.6942C130.446 14.4808 130.179 15.1408 129.646 15.6742C129.126 16.2075 128.466 16.4742 127.666 16.4742ZM147.731 8.77417H153.251V38.7742H147.731V36.6542C147.118 37.4275 146.358 38.0608 145.451 38.5542C144.545 39.0475 143.511 39.2942 142.351 39.2942C140.898 39.2942 139.538 39.0208 138.271 38.4742C137.005 37.9275 135.885 37.1742 134.911 36.2142C133.951 35.2408 133.198 34.1208 132.651 32.8542C132.105 31.5875 131.831 30.2275 131.831 28.7742C131.831 27.3208 132.105 25.9608 132.651 24.6942C133.198 23.4275 133.951 22.3142 134.911 21.3542C135.885 20.3808 137.005 19.6208 138.271 19.0742C139.538 18.5275 140.898 18.2542 142.351 18.2542C143.511 18.2542 144.545 18.5008 145.451 18.9942C146.358 19.4742 147.118 20.1075 147.731 20.8942V8.77417ZM142.431 33.9942C143.338 33.9942 144.158 33.7608 144.891 33.2942C145.625 32.8275 146.205 32.2008 146.631 31.4142C147.058 30.6142 147.271 29.7342 147.271 28.7742C147.271 27.8008 147.058 26.9208 146.631 26.1342C146.205 25.3475 145.625 24.7208 144.891 24.2542C144.158 23.7875 143.338 23.5542 142.431 23.5542C141.511 23.5542 140.678 23.7875 139.931 24.2542C139.185 24.7208 138.591 25.3542 138.151 26.1542C137.711 26.9408 137.491 27.8142 137.491 28.7742C137.491 29.7342 137.711 30.6142 138.151 31.4142C138.605 32.2008 139.205 32.8275 139.951 33.2942C140.698 33.7608 141.525 33.9942 142.431 33.9942ZM164.48 38.7742V10.7742H173.76C175.693 10.7742 177.5 11.1408 179.18 11.8742C180.873 12.5942 182.36 13.6008 183.64 14.8942C184.933 16.1742 185.94 17.6608 186.66 19.3542C187.393 21.0342 187.76 22.8408 187.76 24.7742C187.76 26.7075 187.393 28.5208 186.66 30.2142C185.94 31.8942 184.933 33.3808 183.64 34.6742C182.36 35.9542 180.873 36.9608 179.18 37.6942C177.5 38.4142 175.693 38.7742 173.76 38.7742H164.48ZM170 33.2542H173.76C174.906 33.2542 175.986 33.0342 177 32.5942C178.026 32.1542 178.933 31.5475 179.72 30.7742C180.506 30.0008 181.12 29.1008 181.56 28.0742C182.013 27.0475 182.24 25.9475 182.24 24.7742C182.24 23.6008 182.013 22.5075 181.56 21.4942C181.12 20.4675 180.506 19.5675 179.72 18.7942C178.946 18.0075 178.046 17.3942 177.02 16.9542C176.006 16.5142 174.92 16.2942 173.76 16.2942H170V33.2542ZM189.579 38.7742L189.559 18.7742H195.079L195.099 20.2542C195.766 19.6142 196.546 19.1142 197.439 18.7542C198.346 18.3942 199.299 18.2142 200.299 18.2142C201.033 18.2142 201.766 18.3208 202.499 18.5342L200.319 24.1142C199.839 23.9142 199.353 23.8142 198.859 23.8142C198.166 23.8142 197.533 23.9808 196.959 24.3142C196.386 24.6475 195.933 25.1008 195.599 25.6742C195.266 26.2342 195.099 26.8675 195.099 27.5742V38.7742H189.579ZM210.939 39.2942C209.099 39.2942 207.419 38.8208 205.899 37.8742C204.392 36.9275 203.186 35.6542 202.279 34.0542C201.386 32.4542 200.939 30.6875 200.939 28.7542C200.939 27.3008 201.199 25.9408 201.719 24.6742C202.239 23.3942 202.952 22.2742 203.859 21.3142C204.779 20.3408 205.846 19.5808 207.059 19.0342C208.272 18.4875 209.566 18.2142 210.939 18.2142C212.526 18.2142 213.972 18.5542 215.279 19.2342C216.599 19.9142 217.712 20.8408 218.619 22.0142C219.539 23.1875 220.192 24.5142 220.579 25.9942C220.979 27.4742 221.046 29.0142 220.779 30.6142H206.899C207.072 31.2008 207.339 31.7342 207.699 32.2142C208.072 32.6808 208.526 33.0542 209.059 33.3342C209.606 33.6142 210.232 33.7608 210.939 33.7742C211.632 33.7875 212.272 33.6275 212.859 33.2942C213.446 32.9608 213.946 32.5142 214.359 31.9542L219.999 33.2542C219.186 35.0275 217.972 36.4808 216.359 37.6142C214.746 38.7342 212.939 39.2942 210.939 39.2942ZM206.699 26.5342H215.199C215.026 25.8675 214.732 25.2675 214.319 24.7342C213.906 24.2008 213.406 23.7808 212.819 23.4742C212.246 23.1675 211.619 23.0142 210.939 23.0142C210.272 23.0142 209.646 23.1675 209.059 23.4742C208.486 23.7808 207.992 24.2008 207.579 24.7342C207.179 25.2542 206.886 25.8542 206.699 26.5342ZM237.211 18.7742H242.731V38.7742H237.191L236.931 36.6942C236.411 37.4675 235.745 38.0942 234.931 38.5742C234.118 39.0542 233.165 39.2942 232.071 39.2942C230.578 39.2942 229.185 39.0142 227.891 38.4542C226.598 37.8942 225.458 37.1208 224.471 36.1342C223.485 35.1475 222.711 34.0075 222.151 32.7142C221.605 31.4075 221.331 30.0075 221.331 28.5142C221.331 27.0875 221.591 25.7542 222.111 24.5142C222.631 23.2742 223.365 22.1808 224.311 21.2342C225.258 20.2875 226.345 19.5475 227.571 19.0142C228.811 18.4808 230.145 18.2142 231.571 18.2142C232.798 18.2142 233.898 18.4742 234.871 18.9942C235.858 19.5142 236.718 20.1742 237.451 20.9742L237.211 18.7742ZM231.931 33.9942C232.838 33.9942 233.658 33.7608 234.391 33.2942C235.125 32.8275 235.705 32.2008 236.131 31.4142C236.558 30.6142 236.771 29.7342 236.771 28.7742C236.771 27.8008 236.558 26.9208 236.131 26.1342C235.705 25.3475 235.125 24.7208 234.391 24.2542C233.658 23.7875 232.838 23.5542 231.931 23.5542C231.011 23.5542 230.178 23.7875 229.431 24.2542C228.685 24.7208 228.091 25.3542 227.651 26.1542C227.211 26.9408 226.991 27.8142 226.991 28.7742C226.991 29.7342 227.211 30.6142 227.651 31.4142C228.105 32.2008 228.705 32.8275 229.451 33.2942C230.198 33.7608 231.025 33.9942 231.931 33.9942ZM245.15 38.7742V18.7742H250.67V20.2542C251.35 19.6142 252.137 19.1142 253.03 18.7542C253.923 18.3942 254.87 18.2142 255.87 18.2142C257.23 18.2142 258.477 18.5275 259.61 19.1542C260.757 19.7808 261.677 20.6142 262.37 21.6542C263.077 20.6142 263.997 19.7808 265.13 19.1542C266.263 18.5275 267.503 18.2142 268.85 18.2142C270.303 18.2142 271.617 18.5675 272.79 19.2742C273.977 19.9808 274.923 20.9275 275.63 22.1142C276.337 23.2875 276.69 24.6008 276.69 26.0542V38.7742H271.17V27.5742C271.17 26.8808 270.997 26.2542 270.65 25.6942C270.317 25.1208 269.87 24.6675 269.31 24.3342C268.75 23.9875 268.123 23.8142 267.43 23.8142C266.737 23.8142 266.103 23.9808 265.53 24.3142C264.97 24.6475 264.517 25.1008 264.17 25.6742C263.837 26.2342 263.67 26.8675 263.67 27.5742V38.7742H258.15V27.5742C258.15 26.8675 257.983 26.2342 257.65 25.6742C257.317 25.1008 256.863 24.6475 256.29 24.3142C255.73 23.9808 255.103 23.8142 254.41 23.8142C253.73 23.8142 253.103 23.9875 252.53 24.3342C251.97 24.6675 251.517 25.1208 251.17 25.6942C250.837 26.2542 250.67 26.8808 250.67 27.5742V38.7742H245.15ZM284.917 39.1342C283.89 39.0542 282.904 38.8408 281.957 38.4942C281.01 38.1342 280.164 37.6542 279.417 37.0542C278.684 36.4408 278.11 35.7075 277.697 34.8542L282.337 32.8542C282.484 33.0675 282.704 33.3008 282.997 33.5542C283.29 33.7942 283.644 34.0075 284.057 34.1942C284.484 34.3808 284.977 34.4742 285.537 34.4742C285.95 34.4742 286.35 34.4275 286.737 34.3342C287.124 34.2275 287.437 34.0608 287.677 33.8342C287.917 33.5942 288.037 33.2808 288.037 32.8942C288.037 32.4675 287.884 32.1408 287.577 31.9142C287.27 31.6875 286.897 31.5208 286.457 31.4142C286.03 31.2942 285.617 31.1942 285.217 31.1142C283.99 30.9008 282.83 30.5208 281.737 29.9742C280.657 29.4142 279.777 28.6942 279.097 27.8142C278.417 26.9342 278.077 25.8808 278.077 24.6542C278.077 23.3075 278.43 22.1475 279.137 21.1742C279.844 20.1875 280.764 19.4275 281.897 18.8942C283.03 18.3608 284.257 18.0942 285.577 18.0942C287.137 18.0942 288.584 18.4208 289.917 19.0742C291.25 19.7275 292.324 20.6475 293.137 21.8342L288.777 24.4142C288.604 24.1608 288.377 23.9208 288.097 23.6942C287.83 23.4542 287.517 23.2542 287.157 23.0942C286.81 22.9208 286.437 22.8208 286.037 22.7942C285.517 22.7542 285.044 22.7875 284.617 22.8942C284.19 22.9875 283.85 23.1675 283.597 23.4342C283.357 23.7008 283.237 24.0608 283.237 24.5142C283.237 24.9542 283.43 25.2808 283.817 25.4942C284.204 25.6942 284.65 25.8475 285.157 25.9542C285.664 26.0475 286.11 26.1608 286.497 26.2942C287.657 26.6675 288.744 27.1475 289.757 27.7342C290.784 28.3075 291.61 29.0142 292.237 29.8542C292.864 30.6942 293.157 31.6808 293.117 32.8142C293.117 34.1342 292.724 35.2942 291.937 36.2942C291.15 37.2808 290.13 38.0342 288.877 38.5542C287.637 39.0608 286.317 39.2542 284.917 39.1342Z" fill="white"/></a>
<path xmlns="http://www.w3.org/2000/svg" d="M316 41L316 7" stroke="white" stroke-width="2" stroke-linecap="round"/>
<a xmlns="http://www.w3.org/2000/svg" href="https://www.vividdreams.space/games/"><path xmlns="http://www.w3.org/2000/svg" d="M352.38 38.52C350.447 38.52 348.64 38.1467 346.96 37.4C345.293 36.64 343.833 35.5933 342.58 34.26C341.34 32.9133 340.367 31.3667 339.66 29.62C338.953 27.86 338.6 25.98 338.6 23.98C338.6 21.9133 338.967 20 339.7 18.24C340.447 16.48 341.46 14.9467 342.74 13.64C344.033 12.3333 345.507 11.32 347.16 10.6C348.827 9.86666 350.587 9.5 352.44 9.5C354.547 9.5 356.553 9.99333 358.46 10.98C360.367 11.9667 362.007 13.3933 363.38 15.26L360.38 16.88C359.353 15.5733 358.133 14.5733 356.72 13.88C355.32 13.1867 353.88 12.84 352.4 12.84C350.987 12.84 349.647 13.1267 348.38 13.7C347.127 14.2733 346.013 15.0733 345.04 16.1C344.08 17.1267 343.327 18.3133 342.78 19.66C342.233 21.0067 341.96 22.4667 341.96 24.04C341.96 25.5733 342.233 27.0133 342.78 28.36C343.327 29.7067 344.073 30.8933 345.02 31.92C345.98 32.9333 347.093 33.7267 348.36 34.3C349.627 34.8733 350.98 35.16 352.42 35.16C353.567 35.16 354.653 34.9667 355.68 34.58C356.72 34.1933 357.673 33.6467 358.54 32.94C359.42 32.2333 360.167 31.4 360.78 30.44C361.407 29.48 361.88 28.4267 362.2 27.28H355.3V24.28H366.12C366.107 26.24 365.733 28.08 365 29.8C364.28 31.52 363.287 33.0333 362.02 34.34C360.767 35.6467 359.313 36.6733 357.66 37.42C356.02 38.1533 354.26 38.52 352.38 38.52ZM384.232 18H387.592V38H384.232L384.092 34.62C383.465 35.78 382.598 36.72 381.492 37.44C380.398 38.16 379.092 38.52 377.572 38.52C376.105 38.52 374.732 38.2467 373.452 37.7C372.172 37.14 371.038 36.3733 370.052 35.4C369.078 34.4133 368.318 33.28 367.772 32C367.225 30.72 366.952 29.34 366.952 27.86C366.952 26.4333 367.218 25.0867 367.752 23.82C368.285 22.5533 369.025 21.4467 369.972 20.5C370.932 19.54 372.038 18.7933 373.292 18.26C374.545 17.7133 375.892 17.44 377.332 17.44C378.905 17.44 380.285 17.8133 381.472 18.56C382.658 19.2933 383.618 20.2467 384.352 21.42L384.232 18ZM377.512 35.26C378.832 35.26 379.972 34.94 380.932 34.3C381.905 33.6467 382.652 32.7667 383.172 31.66C383.705 30.5533 383.972 29.3333 383.972 28C383.972 26.64 383.705 25.4133 383.172 24.32C382.638 23.2133 381.885 22.34 380.912 21.7C379.952 21.0467 378.818 20.72 377.512 20.72C376.192 20.72 374.992 21.0467 373.912 21.7C372.832 22.3533 371.972 23.2333 371.332 24.34C370.705 25.4333 370.392 26.6533 370.392 28C370.392 29.3467 370.718 30.5733 371.372 31.68C372.025 32.7733 372.892 33.6467 373.972 34.3C375.052 34.94 376.232 35.26 377.512 35.26ZM389.989 38V18H393.349V20.5C394.056 19.5667 394.942 18.8267 396.009 18.28C397.089 17.72 398.262 17.44 399.529 17.44C401.009 17.44 402.362 17.8 403.589 18.52C404.816 19.24 405.782 20.1933 406.489 21.38C407.196 20.1933 408.156 19.24 409.369 18.52C410.596 17.8 411.942 17.44 413.409 17.44C414.916 17.44 416.282 17.8067 417.509 18.54C418.736 19.26 419.709 20.2333 420.429 21.46C421.162 22.6867 421.529 24.0533 421.529 25.56V38H418.169V26.36C418.169 25.3733 417.929 24.46 417.449 23.62C416.969 22.78 416.322 22.1067 415.509 21.6C414.696 21.0933 413.796 20.84 412.809 20.84C411.822 20.84 410.922 21.08 410.109 21.56C409.296 22.0267 408.649 22.68 408.169 23.52C407.689 24.3467 407.449 25.2933 407.449 26.36V38H404.089V26.36C404.089 25.2933 403.849 24.3467 403.369 23.52C402.889 22.68 402.236 22.0267 401.409 21.56C400.596 21.08 399.696 20.84 398.709 20.84C397.736 20.84 396.836 21.0933 396.009 21.6C395.196 22.1067 394.549 22.78 394.069 23.62C393.589 24.46 393.349 25.3733 393.349 26.36V38H389.989ZM432.345 38.52C430.505 38.52 428.825 38.0467 427.305 37.1C425.799 36.1533 424.592 34.8867 423.685 33.3C422.792 31.7 422.345 29.9333 422.345 28C422.345 26.5333 422.605 25.1667 423.125 23.9C423.645 22.62 424.359 21.5 425.265 20.54C426.185 19.5667 427.252 18.8067 428.465 18.26C429.679 17.7133 430.972 17.44 432.345 17.44C433.852 17.44 435.232 17.7467 436.485 18.36C437.752 18.96 438.832 19.8 439.725 20.88C440.632 21.96 441.305 23.2133 441.745 24.64C442.199 26.0667 442.365 27.5933 442.245 29.22H425.925C426.085 30.3533 426.459 31.3667 427.045 32.26C427.632 33.14 428.379 33.84 429.285 34.36C430.205 34.88 431.225 35.1467 432.345 35.16C433.545 35.16 434.632 34.8533 435.605 34.24C436.579 33.6133 437.365 32.76 437.965 31.68L441.385 32.48C440.585 34.2533 439.379 35.7067 437.765 36.84C436.152 37.96 434.345 38.52 432.345 38.52ZM425.825 26.58H438.865C438.759 25.46 438.399 24.44 437.785 23.52C437.172 22.5867 436.392 21.84 435.445 21.28C434.499 20.72 433.465 20.44 432.345 20.44C431.225 20.44 430.199 20.7133 429.265 21.26C428.332 21.8067 427.559 22.5467 426.945 23.48C426.345 24.4 425.972 25.4333 425.825 26.58ZM450.194 38.38C449.114 38.34 448.06 38.14 447.034 37.78C446.02 37.4067 445.127 36.9067 444.354 36.28C443.594 35.64 443.04 34.9067 442.694 34.08L445.574 32.84C445.774 33.2933 446.134 33.72 446.654 34.12C447.174 34.52 447.774 34.84 448.454 35.08C449.134 35.32 449.82 35.44 450.514 35.44C451.247 35.44 451.934 35.3267 452.574 35.1C453.214 34.8733 453.734 34.54 454.134 34.1C454.547 33.6467 454.754 33.1067 454.754 32.48C454.754 31.8133 454.527 31.2933 454.074 30.92C453.634 30.5333 453.074 30.2333 452.394 30.02C451.727 29.7933 451.047 29.58 450.354 29.38C448.98 29.0333 447.754 28.62 446.674 28.14C445.594 27.6467 444.74 27.0267 444.114 26.28C443.5 25.52 443.194 24.5533 443.194 23.38C443.194 22.14 443.534 21.0667 444.214 20.16C444.907 19.2533 445.814 18.5533 446.934 18.06C448.054 17.5667 449.254 17.32 450.534 17.32C452.147 17.32 453.62 17.6667 454.954 18.36C456.287 19.0533 457.28 19.9933 457.934 21.18L455.234 22.76C455.007 22.28 454.66 21.86 454.194 21.5C453.727 21.1267 453.194 20.8333 452.594 20.62C451.994 20.4067 451.38 20.2933 450.754 20.28C449.98 20.2533 449.254 20.3533 448.574 20.58C447.907 20.8067 447.367 21.1533 446.954 21.62C446.554 22.0733 446.354 22.64 446.354 23.32C446.354 23.9867 446.567 24.4933 446.994 24.84C447.434 25.1867 448 25.4667 448.694 25.68C449.4 25.88 450.167 26.1133 450.994 26.38C452.207 26.7667 453.34 27.2133 454.394 27.72C455.447 28.2267 456.294 28.86 456.934 29.62C457.587 30.38 457.907 31.32 457.894 32.44C457.894 33.6667 457.527 34.74 456.794 35.66C456.06 36.5667 455.107 37.26 453.934 37.74C452.774 38.22 451.527 38.4333 450.194 38.38Z" fill="white"/></a>
</svg>