<svg width="544" height="74" viewBox="0 0 544 74" fill="none" xmlns="http://www.w3.org/2000/svg">
<path d="M24.384 72L-1.52588e-05 4.8H14.064L32.928 56.688L51.792 4.8H65.808L41.424 72H24.384ZM67.9102 24H81.1582V72H67.9102V24ZM74.6302 18.48C72.7102 18.48 71.0942 17.84 69.7822 16.56C68.4702 15.28 67.8142 13.696 67.8142 11.808C67.8142 9.92 68.4702 8.336 69.7822 7.056C71.0942 5.776 72.6942 5.136 74.5822 5.136C76.4702 5.136 78.0542 5.776 79.3342 7.056C80.6462 8.336 81.3022 9.92 81.3022 11.808C81.3022 13.696 80.6622 15.28 79.3822 16.56C78.1342 17.84 76.5502 18.48 74.6302 18.48ZM118.767 72H101.631L84.159 24H98.271L110.175 56.784L122.079 24H136.239L118.767 72ZM139.261 24H152.509V72H139.261V24ZM145.981 18.48C144.061 18.48 142.445 17.84 141.133 16.56C139.821 15.28 139.165 13.696 139.165 11.808C139.165 9.92 139.821 8.336 141.133 7.056C142.445 5.776 144.045 5.136 145.933 5.136C147.821 5.136 149.405 5.776 150.685 7.056C151.997 8.336 152.653 9.92 152.653 11.808C152.653 13.696 152.013 15.28 150.733 16.56C149.485 17.84 147.901 18.48 145.981 18.48ZM194.139 -5.72205e-06H207.387V72H194.139V66.912C192.667 68.768 190.843 70.288 188.667 71.472C186.491 72.656 184.011 73.248 181.227 73.248C177.739 73.248 174.475 72.592 171.435 71.28C168.395 69.968 165.707 68.16 163.371 65.856C161.067 63.52 159.259 60.832 157.947 57.792C156.635 54.752 155.979 51.488 155.979 48C155.979 44.512 156.635 41.248 157.947 38.208C159.259 35.168 161.067 32.496 163.371 30.192C165.707 27.856 168.395 26.032 171.435 24.72C174.475 23.408 177.739 22.752 181.227 22.752C184.011 22.752 186.491 23.344 188.667 24.528C190.843 25.68 192.667 27.2 194.139 29.088V-5.72205e-06ZM181.419 60.528C183.595 60.528 185.563 59.968 187.323 58.848C189.083 57.728 190.475 56.224 191.499 54.336C192.523 52.416 193.035 50.304 193.035 48C193.035 45.664 192.523 43.552 191.499 41.664C190.475 39.776 189.083 38.272 187.323 37.152C185.563 36.032 183.595 35.472 181.419 35.472C179.211 35.472 177.211 36.032 175.419 37.152C173.627 38.272 172.203 39.792 171.147 41.712C170.091 43.6 169.563 45.696 169.563 48C169.563 50.304 170.091 52.416 171.147 54.336C172.235 56.224 173.675 57.728 175.467 58.848C177.259 59.968 179.243 60.528 181.419 60.528ZM234.335 72V4.8H256.607C261.247 4.8 265.583 5.68 269.615 7.44C273.679 9.168 277.247 11.584 280.319 14.688C283.423 17.76 285.839 21.328 287.567 25.392C289.327 29.424 290.207 33.76 290.207 38.4C290.207 43.04 289.327 47.392 287.567 51.456C285.839 55.488 283.423 59.056 280.319 62.16C277.247 65.232 273.679 67.648 269.615 69.408C265.583 71.136 261.247 72 256.607 72H234.335ZM247.583 58.752H256.607C259.359 58.752 261.951 58.224 264.383 57.168C266.847 56.112 269.023 54.656 270.911 52.8C272.799 50.944 274.271 48.784 275.327 46.32C276.415 43.856 276.959 41.216 276.959 38.4C276.959 35.584 276.415 32.96 275.327 30.528C274.271 28.064 272.799 25.904 270.911 24.048C269.055 22.16 266.895 20.688 264.431 19.632C261.999 18.576 259.391 18.048 256.607 18.048H247.583V58.752ZM294.574 72L294.526 24H307.774L307.822 27.552C309.422 26.016 311.294 24.816 313.438 23.952C315.614 23.088 317.902 22.656 320.302 22.656C322.062 22.656 323.822 22.912 325.582 23.424L320.35 36.816C319.198 36.336 318.03 36.096 316.846 36.096C315.182 36.096 313.662 36.496 312.286 37.296C310.91 38.096 309.822 39.184 309.022 40.56C308.222 41.904 307.822 43.424 307.822 45.12V72H294.574ZM345.838 73.248C341.422 73.248 337.39 72.112 333.742 69.84C330.126 67.568 327.23 64.512 325.054 60.672C322.91 56.832 321.838 52.592 321.838 47.952C321.838 44.464 322.462 41.2 323.71 38.16C324.958 35.088 326.67 32.4 328.846 30.096C331.054 27.76 333.614 25.936 336.526 24.624C339.438 23.312 342.542 22.656 345.838 22.656C349.646 22.656 353.118 23.472 356.254 25.104C359.422 26.736 362.094 28.96 364.27 31.776C366.478 34.592 368.046 37.776 368.974 41.328C369.934 44.88 370.094 48.576 369.454 52.416H336.142C336.558 53.824 337.198 55.104 338.062 56.256C338.958 57.376 340.046 58.272 341.326 58.944C342.638 59.616 344.142 59.968 345.838 60C347.502 60.032 349.038 59.648 350.446 58.848C351.854 58.048 353.054 56.976 354.046 55.632L367.582 58.752C365.63 63.008 362.718 66.496 358.846 69.216C354.974 71.904 350.638 73.248 345.838 73.248ZM335.662 42.624H356.062C355.646 41.024 354.942 39.584 353.95 38.304C352.958 37.024 351.758 36.016 350.35 35.28C348.974 34.544 347.47 34.176 345.838 34.176C344.238 34.176 342.734 34.544 341.326 35.28C339.95 36.016 338.766 37.024 337.774 38.304C336.814 39.552 336.11 40.992 335.662 42.624ZM408.891 24H422.139V72H408.843L408.219 67.008C406.971 68.864 405.371 70.368 403.419 71.52C401.467 72.672 399.179 73.248 396.555 73.248C392.971 73.248 389.627 72.576 386.523 71.232C383.419 69.888 380.683 68.032 378.315 65.664C375.947 63.296 374.091 60.56 372.747 57.456C371.435 54.32 370.779 50.96 370.779 47.376C370.779 43.952 371.403 40.752 372.651 37.776C373.899 34.8 375.659 32.176 377.931 29.904C380.203 27.632 382.811 25.856 385.755 24.576C388.731 23.296 391.931 22.656 395.355 22.656C398.299 22.656 400.939 23.28 403.275 24.528C405.643 25.776 407.707 27.36 409.467 29.28L408.891 24ZM396.219 60.528C398.395 60.528 400.363 59.968 402.123 58.848C403.883 57.728 405.275 56.224 406.299 54.336C407.323 52.416 407.835 50.304 407.835 48C407.835 45.664 407.323 43.552 406.299 41.664C405.275 39.776 403.883 38.272 402.123 37.152C400.363 36.032 398.395 35.472 396.219 35.472C394.011 35.472 392.011 36.032 390.219 37.152C388.427 38.272 387.003 39.792 385.947 41.712C384.891 43.6 384.363 45.696 384.363 48C384.363 50.304 384.891 52.416 385.947 54.336C387.035 56.224 388.475 57.728 390.267 58.848C392.059 59.968 394.043 60.528 396.219 60.528ZM427.944 72V24H441.192V27.552C442.824 26.016 444.712 24.816 446.856 23.952C449 23.088 451.272 22.656 453.672 22.656C456.936 22.656 459.928 23.408 462.648 24.912C465.4 26.416 467.608 28.416 469.272 30.912C470.968 28.416 473.176 26.416 475.896 24.912C478.616 23.408 481.592 22.656 484.824 22.656C488.312 22.656 491.464 23.504 494.28 25.2C497.128 26.896 499.4 29.168 501.096 32.016C502.792 34.832 503.64 37.984 503.64 41.472V72H490.392V45.12C490.392 43.456 489.976 41.952 489.144 40.608C488.344 39.232 487.272 38.144 485.928 37.344C484.584 36.512 483.08 36.096 481.416 36.096C479.752 36.096 478.232 36.496 476.856 37.296C475.512 38.096 474.424 39.184 473.592 40.56C472.792 41.904 472.392 43.424 472.392 45.12V72H459.144V45.12C459.144 43.424 458.744 41.904 457.944 40.56C457.144 39.184 456.056 38.096 454.68 37.296C453.336 36.496 451.832 36.096 450.168 36.096C448.536 36.096 447.032 36.512 445.656 37.344C444.312 38.144 443.224 39.232 442.392 40.608C441.592 41.952 441.192 43.456 441.192 45.12V72H427.944ZM523.384 72.864C520.92 72.672 518.552 72.16 516.28 71.328C514.008 70.464 511.976 69.312 510.184 67.872C508.424 66.4 507.048 64.64 506.056 62.592L517.192 57.792C517.544 58.304 518.072 58.864 518.776 59.472C519.48 60.048 520.328 60.56 521.32 61.008C522.344 61.456 523.528 61.68 524.872 61.68C525.864 61.68 526.824 61.568 527.752 61.344C528.68 61.088 529.432 60.688 530.008 60.144C530.584 59.568 530.872 58.816 530.872 57.888C530.872 56.864 530.504 56.08 529.768 55.536C529.032 54.992 528.136 54.592 527.08 54.336C526.056 54.048 525.064 53.808 524.104 53.616C521.16 53.104 518.376 52.192 515.752 50.88C513.16 49.536 511.048 47.808 509.416 45.696C507.784 43.584 506.968 41.056 506.968 38.112C506.968 34.88 507.816 32.096 509.512 29.76C511.208 27.392 513.416 25.568 516.136 24.288C518.856 23.008 521.8 22.368 524.968 22.368C528.712 22.368 532.184 23.152 535.384 24.72C538.584 26.288 541.16 28.496 543.112 31.344L532.648 37.536C532.232 36.928 531.688 36.352 531.016 35.808C530.376 35.232 529.624 34.752 528.76 34.368C527.928 33.952 527.032 33.712 526.072 33.648C524.824 33.552 523.688 33.632 522.664 33.888C521.64 34.112 520.824 34.544 520.216 35.184C519.64 35.824 519.352 36.688 519.352 37.776C519.352 38.832 519.816 39.616 520.744 40.128C521.672 40.608 522.744 40.976 523.96 41.232C525.176 41.456 526.248 41.728 527.176 42.048C529.96 42.944 532.568 44.096 535 45.504C537.464 46.88 539.448 48.576 540.952 50.592C542.456 52.608 543.16 54.976 543.064 57.696C543.064 60.864 542.12 63.648 540.232 66.048C538.344 68.416 535.896 70.224 532.888 71.472C529.912 72.688 526.744 73.152 523.384 72.864Z" fill="white"/>
</svg>
